<svg xmlns="http://www.w3.org/2000/svg" width="54.197" height="42.153" viewBox="0 0 54.197 42.153">
  <path id="Icon_awesome-address-card" data-name="Icon awesome-address-card" d="M49.681,2.25H4.516A4.518,4.518,0,0,0,0,6.766v33.12A4.518,4.518,0,0,0,4.516,44.4H49.681A4.518,4.518,0,0,0,54.2,39.887V6.766A4.518,4.518,0,0,0,49.681,2.25ZM16.56,11.283A6.022,6.022,0,1,1,10.538,17.3,6.027,6.027,0,0,1,16.56,11.283ZM27.1,33.564a1.973,1.973,0,0,1-2.108,1.807H8.13a1.973,1.973,0,0,1-2.108-1.807V31.757c0-2.992,2.832-5.42,6.323-5.42h.47a9.692,9.692,0,0,0,7.49,0h.47c3.491,0,6.323,2.428,6.323,5.42ZM48.175,28.6a.755.755,0,0,1-.753.753H33.873a.755.755,0,0,1-.753-.753V27.09a.755.755,0,0,1,.753-.753H47.422a.755.755,0,0,1,.753.753Zm0-6.022a.755.755,0,0,1-.753.753H33.873a.755.755,0,0,1-.753-.753V21.068a.755.755,0,0,1,.753-.753H47.422a.755.755,0,0,1,.753.753Zm0-6.022a.755.755,0,0,1-.753.753H33.873a.755.755,0,0,1-.753-.753V15.047a.755.755,0,0,1,.753-.753H47.422a.755.755,0,0,1,.753.753Z" transform="translate(0 -2.25)"/>
</svg>
