<svg id="Icon_ionic-md-analytics" data-name="Icon ionic-md-analytics" xmlns="http://www.w3.org/2000/svg" width="27.736" height="25.756" viewBox="0 0 27.736 25.756">
  <path id="Path_5" data-name="Path 5" d="M23.753,12.466l-5.4,8.257a2.94,2.94,0,0,1,.669,1.876,2.971,2.971,0,0,1-5.942,0,3.256,3.256,0,0,1,.05-.551L9.566,19.974a2.953,2.953,0,0,1-2.061.829,2.988,2.988,0,0,1-1.461-.384L2.25,23.973v3.541a2.65,2.65,0,0,0,2.643,2.643h22.45a2.65,2.65,0,0,0,2.643-2.643V14.354l-3.627-2.408a2.969,2.969,0,0,1-2.606.52Z" transform="translate(-2.25 -4.401)" fill="#ffc188"/>
  <path id="Path_6" data-name="Path 6" d="M7.511,13.836a2.972,2.972,0,0,1,2.971,2.971c0,.13-.012.26-.025.384l3.72,2.08a2.945,2.945,0,0,1,1.882-.668,3.109,3.109,0,0,1,.644.068l5.41-8.381a2.94,2.94,0,0,1-.551-1.721,2.971,2.971,0,1,1,5.942,0,3.229,3.229,0,0,1-.08.7l2.556,1.708V6.018a2.65,2.65,0,0,0-2.643-2.643H4.893A2.65,2.65,0,0,0,2.25,6.018V20.211l2.476-2.371a2.971,2.971,0,0,1,2.785-4Z" transform="translate(-2.25 -3.375)" fill="#ffc188"/>
</svg>
