<svg xmlns="http://www.w3.org/2000/svg" width="31.692" height="31.693" viewBox="0 0 31.692 31.693">
  <path id="Icon_awesome-atlassian" data-name="Icon awesome-atlassian" d="M9.421,14.633a.9.9,0,0,0-1.535.173L.1,30.342a.93.93,0,0,0,.829,1.343H11.761a.893.893,0,0,0,.829-.52c2.346-4.816.935-12.151-3.169-16.533ZM15.128.5c-7.57,11.971-.526,21.578,4.023,30.67a.927.927,0,0,0,.829.52H30.763a.927.927,0,0,0,.829-1.343S17.078,1.219,16.713.5A.878.878,0,0,0,15.128.5Z" transform="translate(0 0.001)" fill="#ffc188"/>
</svg>
