<svg xmlns="http://www.w3.org/2000/svg" width="39.617" height="27.731" viewBox="0 0 39.617 27.731">
  <path id="Icon_awesome-box-open" data-name="Icon awesome-box-open" d="M26.35,16.115a3,3,0,0,1-2.563-1.448l-3.98-6.6-3.974,6.6a3.011,3.011,0,0,1-2.569,1.455A2.847,2.847,0,0,1,12.441,16l-8.48-2.426V24.595a1.974,1.974,0,0,0,1.5,1.919l13.382,3.349a4.024,4.024,0,0,0,1.919,0l13.395-3.349a1.985,1.985,0,0,0,1.5-1.919V13.577L27.173,16A2.847,2.847,0,0,1,26.35,16.115ZM39.509,9.17,36.321,2.807a1.011,1.011,0,0,0-1.034-.551L19.807,4.23l5.676,9.415a1.017,1.017,0,0,0,1.145.452l12.25-3.5a1.019,1.019,0,0,0,.631-1.43ZM3.293,2.807.1,9.17A1.009,1.009,0,0,0,.73,10.594l12.25,3.5a1.017,1.017,0,0,0,1.145-.452L19.807,4.23,4.32,2.256A1.011,1.011,0,0,0,3.293,2.807Z" transform="translate(0.003 -2.247)" fill="#ffc188"/>
</svg>
