<svg xmlns="http://www.w3.org/2000/svg" width="38.704" height="38.704" viewBox="0 0 38.704 38.704">
  <g id="Setting" transform="translate(1.5 1.5)">
    <path id="Path_3722" data-name="Path 3722" d="M23.238,18.369A4.869,4.869,0,1,1,18.369,13.5,4.869,4.869,0,0,1,23.238,18.369Z" transform="translate(-0.517 -0.517)" fill="none" stroke="#fff" stroke-linecap="round" stroke-linejoin="round" stroke-width="3"/>
    <path id="Path_3723" data-name="Path 3723" d="M31.362,24.221a2.678,2.678,0,0,0,.536,2.954l.1.1A3.248,3.248,0,1,1,27.4,31.865l-.1-.1a2.7,2.7,0,0,0-4.577,1.915v.276a3.246,3.246,0,1,1-6.492,0v-.146a2.678,2.678,0,0,0-1.753-2.451,2.678,2.678,0,0,0-2.954.536l-.1.1A3.248,3.248,0,1,1,6.839,27.4l.1-.1a2.7,2.7,0,0,0-1.915-4.577H4.746a3.246,3.246,0,1,1,0-6.492h.146a2.678,2.678,0,0,0,2.451-1.753,2.678,2.678,0,0,0-.536-2.954l-.1-.1A3.248,3.248,0,1,1,11.3,6.839l.1.1a2.678,2.678,0,0,0,2.954.536h.13a2.678,2.678,0,0,0,1.623-2.451V4.746a3.246,3.246,0,1,1,6.492,0v.146a2.7,2.7,0,0,0,4.577,1.915l.1-.1A3.248,3.248,0,1,1,31.865,11.3l-.1.1a2.678,2.678,0,0,0-.536,2.954v.13a2.678,2.678,0,0,0,2.451,1.623h.276a3.246,3.246,0,1,1,0,6.492h-.146a2.678,2.678,0,0,0-2.451,1.623Z" transform="translate(-1.5 -1.5)" fill="none" stroke="#fff" stroke-linecap="round" stroke-linejoin="round" stroke-width="3"/>
  </g>
</svg>
