<svg xmlns="http://www.w3.org/2000/svg" width="27" height="27" viewBox="0 0 27 27">
  <path id="Icon_open-magnifying-glass" data-name="Icon open-magnifying-glass" d="M11.706-.012a11.706,11.706,0,0,0,0,23.413,11.571,11.571,0,0,0,5.552-1.371,3.345,3.345,0,0,0,.435.435l3.345,3.345a3.412,3.412,0,1,0,4.816-4.816L22.51,17.649a3.345,3.345,0,0,0-.535-.435,11.549,11.549,0,0,0,1.472-5.552A11.719,11.719,0,0,0,11.74-.045Zm0,3.345a8.322,8.322,0,0,1,8.362,8.362,8.387,8.387,0,0,1-2.208,5.753l-.1.1a3.345,3.345,0,0,0-.435.435,8.369,8.369,0,0,1-5.653,2.107,8.362,8.362,0,0,1,0-16.724Z" transform="translate(0 0.045)" fill="#4d4d4d"/>
</svg>
