<svg id="Icon_ionic-ios-home" data-name="Icon ionic-ios-home" xmlns="http://www.w3.org/2000/svg" width="25.758" height="25.75" viewBox="0 0 25.758 25.75">
  <path id="Path_1" data-name="Path 1" d="M16.808,7.312a.243.243,0,0,0-.309,0L6.843,15.037a.26.26,0,0,0-.093.192V29.465a.124.124,0,0,0,.124.124h6.685a.124.124,0,0,0,.124-.124V20.8a.124.124,0,0,1,.124-.124H19.5a.124.124,0,0,1,.124.124v8.666a.124.124,0,0,0,.124.124h6.685a.124.124,0,0,0,.124-.124V15.229a.25.25,0,0,0-.093-.192Z" transform="translate(-3.778 -3.839)" fill="#ffc188"/>
  <path id="Path_2" data-name="Path 2" d="M28.8,13.043,17.1,3.672a1.359,1.359,0,0,0-1.7,0L10.307,7.813V5.2a.124.124,0,0,0-.124-.124H6.47a.124.124,0,0,0-.124.124v5.707L3.7,13.081a.866.866,0,0,0-.074,1.294.861.861,0,0,0,.613.254.872.872,0,0,0,.545-.192L16.169,5.275a.111.111,0,0,1,.08-.025.15.15,0,0,1,.08.025L27.713,14.4a.872.872,0,0,0,.545.192.878.878,0,0,0,.873-.916A.88.88,0,0,0,28.8,13.043Z" transform="translate(-3.374 -3.375)" fill="#ffc188"/>
</svg>
