<svg xmlns="http://www.w3.org/2000/svg" width="26.271" height="26.271" viewBox="0 0 26.271 26.271">
  <g id="menu" transform="translate(0 0)">
    <circle id="Ellipse_35" data-name="Ellipse 35" cx="5.935" cy="5.935" r="5.935" transform="translate(14.049 14.049)" fill="#f79caf"/>
    <g id="Group_158" data-name="Group 158">
      <path id="Path_637" data-name="Path 637" d="M12.314,3.386V8.928a3.39,3.39,0,0,1-3.386,3.386H3.386A3.39,3.39,0,0,1,0,8.928V3.386A3.39,3.39,0,0,1,3.386,0H8.928A3.39,3.39,0,0,1,12.314,3.386Z" fill="#acebe2"/>
      <path id="Path_638" data-name="Path 638" d="M284.314,3.386V8.928a3.39,3.39,0,0,1-3.387,3.386h-5.541A3.39,3.39,0,0,1,272,8.928V3.386A3.39,3.39,0,0,1,275.387,0h5.541A3.39,3.39,0,0,1,284.314,3.386Z" transform="translate(-258.044 0)" fill="#acebe2"/>
      <path id="Path_639" data-name="Path 639" d="M12.314,275.387v5.541a3.39,3.39,0,0,1-3.386,3.387H3.386A3.39,3.39,0,0,1,0,280.928v-5.541A3.39,3.39,0,0,1,3.386,272H8.928A3.39,3.39,0,0,1,12.314,275.387Z" transform="translate(0 -258.044)" fill="#acebe2"/>
    </g>
    <path id="Path_640" data-name="Path 640" d="M382.978,278.157a6.158,6.158,0,0,1-6.978,6.1,6.157,6.157,0,0,0,0-12.2,6.158,6.158,0,0,1,6.978,6.1Z" transform="translate(-356.707 -258.044)" fill="#e3889b"/>
    <path id="Path_641" data-name="Path 641" d="M147.028,3.386V8.928a3.39,3.39,0,0,1-3.386,3.386H142a3.39,3.39,0,0,0,3.386-3.386V3.386A3.39,3.39,0,0,0,142,0h1.642A3.39,3.39,0,0,1,147.028,3.386Z" transform="translate(-134.714 0)" fill="#98d7ce"/>
    <path id="Path_642" data-name="Path 642" d="M419.028,3.386V8.928a3.39,3.39,0,0,1-3.386,3.386H414a3.39,3.39,0,0,0,3.386-3.386V3.386A3.39,3.39,0,0,0,414,0h1.642A3.39,3.39,0,0,1,419.028,3.386Z" transform="translate(-392.758 0)" fill="#98d7ce"/>
    <path id="Path_643" data-name="Path 643" d="M147.028,275.387v5.541a3.39,3.39,0,0,1-3.386,3.387H142a3.39,3.39,0,0,0,3.386-3.387v-5.541A3.39,3.39,0,0,0,142,272h1.642A3.39,3.39,0,0,1,147.028,275.387Z" transform="translate(-134.714 -258.044)" fill="#98d7ce"/>
  </g>
</svg>
