<svg xmlns="http://www.w3.org/2000/svg" width="13.794" height="10.614" viewBox="0 0 13.794 10.614">
  <path id="backspace" d="M14.881,6.75H9.41C7.861,6.75,6.983,7.9,6.028,8.856s-2.391,2.477-2.391,2.477a1.043,1.043,0,0,0-.262.693,1.065,1.065,0,0,0,.262.7s1.137,1.247,2.391,2.5,1.88,2.139,3.382,2.139h5.471a2.329,2.329,0,0,0,2.288-2.354V9.038A2.272,2.272,0,0,0,14.881,6.75ZM14.294,13.8a.53.53,0,1,1-.749.749L11.8,12.8,10.05,14.552a.526.526,0,0,1-.749,0,.512.512,0,0,1,0-.749l1.748-1.748L9.3,10.308a.512.512,0,0,1,0-.749.507.507,0,0,1,.749,0L11.8,11.306l1.748-1.748a.53.53,0,0,1,.749.749l-1.748,1.748Z" transform="translate(-3.375 -6.75)"/>
</svg>
