<svg xmlns="http://www.w3.org/2000/svg" width="6.176" height="5.918" viewBox="0 0 6.176 5.918">
  <g id="Icon_feather-shopping-cart" data-name="Icon feather-shopping-cart" transform="translate(0.25 0.25)">
    <path id="Path_3196" data-name="Path 3196" d="M12,30.258A.258.258,0,1,0,12.258,30,.258.258,0,0,0,12,30.258Z" transform="translate(-8.646 -25.098)" fill="none" stroke="#fff" stroke-linecap="round" stroke-linejoin="round" stroke-width="0.5"/>
    <path id="Path_3197" data-name="Path 3197" d="M28.5,30.258A.258.258,0,1,0,28.758,30,.258.258,0,0,0,28.5,30.258Z" transform="translate(-27.984 -25.098)" fill="none" stroke="#fff" stroke-linecap="round" stroke-linejoin="round" stroke-width="0.5"/>
    <path id="Path_3198" data-name="Path 3198" d="M7.176,1.5H6.144L5.452,4.955a.516.516,0,0,1-.516.415H2.429a.516.516,0,0,1-.516-.415L1.5,2.79H5.886" transform="translate(-1.5 -1.5)" fill="none" stroke="#fff" stroke-linecap="round" stroke-linejoin="round" stroke-width="0.5"/>
  </g>
</svg>
