<svg xmlns="http://www.w3.org/2000/svg" width="26.184" height="25.085" viewBox="0 0 26.184 25.085">
  <g id="Icon_feather-shopping-cart" data-name="Icon feather-shopping-cart" transform="translate(1 1)">
    <path id="Path_3196" data-name="Path 3196" d="M12,31.1A1.1,1.1,0,1,0,13.1,30,1.1,1.1,0,0,0,12,31.1Z" transform="translate(2.29 -9.114)" fill="none" stroke="#00313d" stroke-linecap="round" stroke-linejoin="round" stroke-width="2"/>
    <path id="Path_3197" data-name="Path 3197" d="M28.5,31.1A1.1,1.1,0,1,0,29.6,30,1.1,1.1,0,0,0,28.5,31.1Z" transform="translate(-26.301 -9.114)" fill="none" stroke="#00313d" stroke-linecap="round" stroke-linejoin="round" stroke-width="2"/>
    <path id="Path_3198" data-name="Path 3198" d="M25.684,1.5h-4.4L18.341,16.219a2.2,2.2,0,0,1-2.2,1.77H5.457a2.2,2.2,0,0,1-2.2-1.77L1.5,7H20.188" transform="translate(-1.5 -1.5)" fill="none" stroke="#00313d" stroke-linecap="round" stroke-linejoin="round" stroke-width="2"/>
  </g>
</svg>
