<svg xmlns="http://www.w3.org/2000/svg" width="18.906" height="21.607" viewBox="0 0 18.906 21.607">
  <path id="Icon_metro-attachment" data-name="Icon metro-attachment" d="M16.909,8.829l-1.371-1.37L8.685,14.311A2.907,2.907,0,0,0,12.8,18.423L21.021,10.2a4.845,4.845,0,0,0-6.853-6.852L5.533,11.982,5.515,12a6.758,6.758,0,1,0,9.558,9.557l.017-.018h0l5.894-5.893-1.371-1.37L13.72,20.168l-.018.018A4.82,4.82,0,0,1,6.885,13.37l.019-.018h0l8.636-8.634a2.907,2.907,0,0,1,4.112,4.111l-8.224,8.223a.969.969,0,1,1-1.371-1.37l6.854-6.853Z" transform="translate(-3.535 -1.928)" fill="#00ba7a"/>
</svg>
