<svg xmlns="http://www.w3.org/2000/svg" width="23.041" height="12.492" viewBox="0 0 23.041 12.492">
  <g id="Group_1673" data-name="Group 1673" transform="translate(0 0)">
    <path id="Path_5438" data-name="Path 5438" d="M730.165,130.9l-.023,0a2.73,2.73,0,0,0-3.96-3.4,3.8,3.8,0,0,0-7.288,1.913l-.032,0a2.55,2.55,0,1,0,0,5.1h11.3a1.808,1.808,0,0,0,0-3.617Z" transform="translate(-708.932 -125.151)" fill="#b9d7ff"/>
    <path id="Path_5439" data-name="Path 5439" d="M667.292,142.732l-.027,0a3.292,3.292,0,0,0-4.774-4.1,4.58,4.58,0,0,0-8.787,2.307l-.038,0a3.074,3.074,0,1,0,0,6.149h13.627a2.18,2.18,0,0,0,0-4.361Z" transform="translate(-650.59 -134.601)" fill="#fff"/>
  </g>
</svg>
