<svg xmlns="http://www.w3.org/2000/svg" width="5.001" height="9" viewBox="0 0 5.001 9">
  <g id="Controller" transform="translate(0.105 -0.442)">
    <path id="Polygon_14" data-name="Polygon 14" d="M2.076.678a.5.5,0,0,1,.848,0l1.6,2.557A.5.5,0,0,1,4.1,4H.9a.5.5,0,0,1-.424-.765Z" transform="translate(-0.104 0.442)" fill="#ffbd84"/>
    <path id="Polygon_15" data-name="Polygon 15" d="M2.076.678a.5.5,0,0,1,.848,0l1.6,2.557A.5.5,0,0,1,4.1,4H.9a.5.5,0,0,1-.424-.765Z" transform="translate(4.895 9.442) rotate(180)" fill="#ffbd84"/>
  </g>
</svg>
