<svg xmlns="http://www.w3.org/2000/svg" width="23.083" height="19.914" viewBox="0 0 23.083 19.914">
  <path id="Icon_material-shopping-basket" data-name="Icon material-shopping-basket" d="M18.508,10.354l-4.6-6.883a1.042,1.042,0,0,0-.871-.441,1.025,1.025,0,0,0-.871.451l-4.6,6.872H2.549A1.052,1.052,0,0,0,1.5,11.4a.884.884,0,0,0,.042.283l2.665,9.726a2.087,2.087,0,0,0,2.015,1.532h13.64a2.109,2.109,0,0,0,2.025-1.532l2.665-9.726.031-.283a1.052,1.052,0,0,0-1.049-1.049Zm-8.614,0,3.148-4.617,3.148,4.617Zm3.148,8.394a2.1,2.1,0,1,1,2.1-2.1A2.1,2.1,0,0,1,13.041,18.747Z" transform="translate(-1.5 -3.03)" fill="#264753"/>
</svg>
