<svg xmlns="http://www.w3.org/2000/svg" width="16.594" height="16.594" viewBox="0 0 16.594 16.594">
  <path id="Icon_awesome-headset" data-name="Icon awesome-headset" d="M6.223,6.741A1.037,1.037,0,0,0,5.186,5.7H4.667A2.074,2.074,0,0,0,2.593,7.779V9.334a2.074,2.074,0,0,0,2.074,2.074h.519a1.037,1.037,0,0,0,1.037-1.037Zm5.7,4.667A2.074,2.074,0,0,0,14,9.334V7.779A2.074,2.074,0,0,0,11.927,5.7h-.519a1.037,1.037,0,0,0-1.037,1.037v3.63a1.037,1.037,0,0,0,1.037,1.037ZM8.3,0A8.455,8.455,0,0,0,0,8.3v.519a.518.518,0,0,0,.519.519h.519a.518.518,0,0,0,.519-.519V8.3a6.741,6.741,0,0,1,13.483,0h0c0,.079,0,5.371,0,5.371a1.37,1.37,0,0,1-1.37,1.37h-3.3a1.556,1.556,0,0,0-1.556-1.556H7.779a1.556,1.556,0,1,0,0,3.111h5.89a2.926,2.926,0,0,0,2.926-2.926V8.3A8.455,8.455,0,0,0,8.3,0Z" fill="#00313d"/>
</svg>
