<svg xmlns="http://www.w3.org/2000/svg" width="45.285" height="45.285" viewBox="0 0 45.285 45.285">
  <g id="Icon_feather-image" data-name="Icon feather-image" transform="translate(-3 -3)">
    <path id="Path_5449" data-name="Path 5449" d="M9.129,4.5H41.535a4.629,4.629,0,0,1,4.629,4.629V41.535a4.629,4.629,0,0,1-4.629,4.629H9.129A4.629,4.629,0,0,1,4.5,41.535V9.129A4.629,4.629,0,0,1,9.129,4.5Z" fill="none" stroke="#00c346" stroke-linecap="round" stroke-linejoin="round" stroke-width="3"/>
    <path id="Path_5450" data-name="Path 5450" d="M17.444,13.972A3.472,3.472,0,1,1,13.972,10.5,3.472,3.472,0,0,1,17.444,13.972Z" transform="translate(3.259 3.259)" fill="none" stroke="#00c346" stroke-linecap="round" stroke-linejoin="round" stroke-width="3"/>
    <path id="Path_5451" data-name="Path 5451" d="M44.535,26.573,32.961,15,7.5,40.461" transform="translate(1.629 5.703)" fill="none" stroke="#00c346" stroke-linecap="round" stroke-linejoin="round" stroke-width="3"/>
  </g>
</svg>
