<svg xmlns="http://www.w3.org/2000/svg" width="16.5" height="22" viewBox="0 0 16.5 22">
  <path id="Icon_awesome-file-invoice-dollar" data-name="Icon awesome-file-invoice-dollar" d="M16.2,4.512,11.993.3a1.03,1.03,0,0,0-.73-.3H11V5.5h5.5V5.238A1.028,1.028,0,0,0,16.2,4.512ZM9.625,5.844V0H1.031A1.029,1.029,0,0,0,0,1.031V20.969A1.029,1.029,0,0,0,1.031,22H15.469A1.029,1.029,0,0,0,16.5,20.969V6.875H10.656A1.034,1.034,0,0,1,9.625,5.844ZM2.75,3.094a.344.344,0,0,1,.344-.344H6.531a.344.344,0,0,1,.344.344v.688a.344.344,0,0,1-.344.344H3.094a.344.344,0,0,1-.344-.344Zm0,3.438V5.844A.344.344,0,0,1,3.094,5.5H6.531a.344.344,0,0,1,.344.344v.688a.344.344,0,0,1-.344.344H3.094A.344.344,0,0,1,2.75,6.531ZM8.938,17.87v1.036a.344.344,0,0,1-.344.344H7.906a.344.344,0,0,1-.344-.344V17.863a2.46,2.46,0,0,1-1.348-.488.344.344,0,0,1-.024-.522l.5-.482a.353.353,0,0,1,.435-.031,1.034,1.034,0,0,0,.551.16H8.889a.54.54,0,0,0,.507-.567.561.561,0,0,0-.377-.547l-1.934-.58a1.945,1.945,0,0,1-1.357-1.864,1.913,1.913,0,0,1,1.833-1.937V9.969a.344.344,0,0,1,.344-.344h.688a.344.344,0,0,1,.344.344v1.044a2.457,2.457,0,0,1,1.348.488.344.344,0,0,1,.024.522l-.5.482a.353.353,0,0,1-.435.031,1.031,1.031,0,0,0-.551-.16H7.611a.54.54,0,0,0-.507.567.561.561,0,0,0,.377.547l1.934.58a1.945,1.945,0,0,1,1.357,1.864A1.913,1.913,0,0,1,8.938,17.87Z" fill="#264753"/>
</svg>
