<svg id="like" xmlns="http://www.w3.org/2000/svg" width="21.436" height="20.611" viewBox="0 0 21.436 20.611">
    <path id="Icon_ionic-ios-heart-empty"
          d="M19.04,3.938h-.052a5.863,5.863,0,0,0-4.9,2.679A5.863,5.863,0,0,0,9.2,3.938H9.146A5.826,5.826,0,0,0,3.375,9.76,12.543,12.543,0,0,0,5.838,16.6a43.164,43.164,0,0,0,8.255,7.951A43.164,43.164,0,0,0,22.348,16.6,12.543,12.543,0,0,0,24.811,9.76,5.826,5.826,0,0,0,19.04,3.938Zm2.144,11.81a39.522,39.522,0,0,1-7.09,6.987A39.581,39.581,0,0,1,7,15.743,11.116,11.116,0,0,1,4.818,9.76,4.372,4.372,0,0,1,9.156,5.385H9.2a4.32,4.32,0,0,1,2.118.557,4.5,4.5,0,0,1,1.566,1.469,1.448,1.448,0,0,0,2.422,0,4.548,4.548,0,0,1,1.566-1.469,4.32,4.32,0,0,1,2.118-.557h.046A4.372,4.372,0,0,1,23.378,9.76,11.257,11.257,0,0,1,21.183,15.748Z"
          transform="translate(-3.375 -3.938)" fill="#00313d"/>
</svg>
