<svg xmlns="http://www.w3.org/2000/svg" width="5.031" height="4.838" viewBox="0 0 5.031 4.838">
  <g id="like" transform="translate(0 0)">
    <path id="Icon_ionic-ios-heart-empty" data-name="Icon ionic-ios-heart-empty" d="M7.051,3.938H7.039a1.376,1.376,0,0,0-1.149.629,1.376,1.376,0,0,0-1.149-.629H4.729A1.367,1.367,0,0,0,3.375,5.3a2.944,2.944,0,0,0,.578,1.6A10.13,10.13,0,0,0,5.89,8.775,10.13,10.13,0,0,0,7.828,6.909a2.944,2.944,0,0,0,.578-1.6A1.367,1.367,0,0,0,7.051,3.938Zm.5,2.772A9.276,9.276,0,0,1,5.89,8.349,9.29,9.29,0,0,1,4.226,6.708a2.609,2.609,0,0,1-.513-1.4A1.026,1.026,0,0,1,4.732,4.277h.011a1.014,1.014,0,0,1,.5.131,1.057,1.057,0,0,1,.368.345.34.34,0,0,0,.568,0,1.067,1.067,0,0,1,.368-.345,1.014,1.014,0,0,1,.5-.131h.011A1.026,1.026,0,0,1,8.07,5.3,2.642,2.642,0,0,1,7.555,6.709Z" transform="translate(-3.375 -3.938)" fill="#fff"/>
  </g>
</svg>
