<svg xmlns="http://www.w3.org/2000/svg" width="44.524" height="48.156" viewBox="0 0 44.524 48.156">
  <g id="icon" transform="translate(-2.451 -1.44)">
    <path id="Path_3764" data-name="Path 3764" d="M44.926,34.441V16.474a4.492,4.492,0,0,0-2.246-3.885L26.959,3.6a4.492,4.492,0,0,0-4.492,0L6.746,12.588A4.492,4.492,0,0,0,4.5,16.474V34.441a4.492,4.492,0,0,0,2.246,3.885L22.467,47.31a4.492,4.492,0,0,0,4.492,0L42.68,38.326a4.492,4.492,0,0,0,2.246-3.885Z" transform="translate(0)" fill="none" stroke="#000" stroke-linecap="round" stroke-linejoin="round" stroke-width="3"/>
    <path id="Path_3765" data-name="Path 3765" d="M11.25,6.315l10.106,5.839L31.463,6.315" transform="translate(3.356 1.647)" fill="none" stroke="#000" stroke-linecap="round" stroke-linejoin="round" stroke-width="3"/>
    <path id="Path_3766" data-name="Path 3766" d="M14.606,35.5V23.839L4.5,18" transform="translate(0 7.457)" fill="none" stroke="#000" stroke-linecap="round" stroke-linejoin="round" stroke-width="3"/>
    <path id="Path_3767" data-name="Path 3767" d="M34.856,18,24.75,23.839V35.5" transform="translate(10.069 7.457)" fill="none" stroke="#000" stroke-linecap="round" stroke-linejoin="round" stroke-width="3"/>
    <path id="Path_3768" data-name="Path 3768" d="M4.905,10.44,24.512,21.782,44.118,10.44" transform="translate(0.201 3.698)" fill="none" stroke="#000" stroke-linecap="round" stroke-linejoin="round" stroke-width="3"/>
    <path id="Path_3769" data-name="Path 3769" d="M18,40.638V18" transform="translate(6.713 7.457)" fill="none" stroke="#000" stroke-linecap="round" stroke-linejoin="round" stroke-width="3"/>
  </g>
</svg>
