<svg xmlns="http://www.w3.org/2000/svg" width="44.523" height="44.523" viewBox="0 0 44.523 44.523">
  <path id="Icon_awesome-landmark" data-name="Icon awesome-landmark" d="M43.621,8.01,23.239.177a2.779,2.779,0,0,0-1.954,0L.9,8.01a1.391,1.391,0,0,0-.9,1.3v3.21a1.391,1.391,0,0,0,1.391,1.391H43.132a1.391,1.391,0,0,0,1.391-1.391V9.313A1.391,1.391,0,0,0,43.621,8.01ZM5.565,16.7V30.61H4.174A1.391,1.391,0,0,0,2.783,32v4.174H41.741V32a1.391,1.391,0,0,0-1.391-1.391H38.958V16.7H33.393V30.61H25.044V16.7H19.479V30.61H11.131V16.7ZM43.132,38.958H1.391A1.391,1.391,0,0,0,0,40.349v2.783a1.391,1.391,0,0,0,1.391,1.391H43.132a1.391,1.391,0,0,0,1.391-1.391V40.349A1.391,1.391,0,0,0,43.132,38.958Z"/>
</svg>
