<svg xmlns="http://www.w3.org/2000/svg" width="9.77" height="9.77" viewBox="0 0 9.77 9.77">
  <path id="magnifying-glass" d="M4.236-.033a4.236,4.236,0,0,0,0,8.472,4.187,4.187,0,0,0,2.009-.5A1.21,1.21,0,0,0,6.4,8.1l1.21,1.21A1.234,1.234,0,1,0,9.356,7.568l-1.21-1.21A1.21,1.21,0,0,0,7.952,6.2a4.179,4.179,0,0,0,.533-2.009A4.241,4.241,0,0,0,4.248-.045Zm0,1.21A3.011,3.011,0,0,1,7.262,4.2a3.035,3.035,0,0,1-.8,2.082l-.036.036a1.21,1.21,0,0,0-.157.157,3.029,3.029,0,0,1-2.045.762,3.026,3.026,0,1,1,0-6.051Z" transform="translate(0 0.045)" fill="#d5d5d5"/>
</svg>
