<svg xmlns="http://www.w3.org/2000/svg" width="21.326" height="21.326" viewBox="0 0 21.326 21.326">
  <g id="Icon_feather-image" data-name="Icon feather-image" transform="translate(1 1)">
    <path id="Path_4111" data-name="Path 4111" d="M6.6,4.5H21.31a2.1,2.1,0,0,1,2.1,2.1V21.31a2.1,2.1,0,0,1-2.1,2.1H6.6a2.1,2.1,0,0,1-2.1-2.1V6.6A2.1,2.1,0,0,1,6.6,4.5Z" transform="translate(-4.5 -4.5)" fill="none" stroke="#00ba7a" stroke-linecap="round" stroke-linejoin="round" stroke-width="2"/>
    <path id="Path_4112" data-name="Path 4112" d="M13.652,12.076A1.576,1.576,0,1,1,12.076,10.5,1.576,1.576,0,0,1,13.652,12.076Z" transform="translate(-6.297 -6.297)" fill="none" stroke="#00ba7a" stroke-linecap="round" stroke-linejoin="round" stroke-width="2"/>
    <path id="Path_4113" data-name="Path 4113" d="M24.31,20.253,19.057,15,7.5,26.557" transform="translate(-5.398 -7.645)" fill="none" stroke="#00ba7a" stroke-linecap="round" stroke-linejoin="round" stroke-width="2"/>
  </g>
</svg>
