<svg xmlns="http://www.w3.org/2000/svg" width="20.032" height="18.615" viewBox="0 0 20.032 18.615">
  <g id="Group_1672" data-name="Group 1672" transform="translate(0 0)">
    <path id="Path_5434" data-name="Path 5434" d="M114.855,415.352l-.029,0a3.493,3.493,0,0,0-5.065-4.345,4.859,4.859,0,0,0-9.323,2.447l-.041,0a3.262,3.262,0,0,0,0,6.523h14.457a2.313,2.313,0,0,0,0-4.626Z" transform="translate(-97.136 -407.994)" fill="#fff"/>
    <path id="Path_5435" data-name="Path 5435" d="M127.851,528.8a1.642,1.642,0,1,1-2.96-1.423c.393-.817,2.934-2.313,2.934-2.313S128.244,527.98,127.851,528.8Z" transform="translate(-121.441 -511.114)" fill="#b9d7ff"/>
    <path id="Path_5436" data-name="Path 5436" d="M162.127,528.8a1.642,1.642,0,1,1-2.96-1.423c.393-.817,2.934-2.313,2.934-2.313S162.52,527.98,162.127,528.8Z" transform="translate(-151.633 -511.114)" fill="#b9d7ff"/>
    <path id="Path_5437" data-name="Path 5437" d="M196.887,528.8a1.642,1.642,0,1,1-2.96-1.423c.393-.817,2.934-2.313,2.934-2.313S197.28,527.98,196.887,528.8Z" transform="translate(-182.252 -511.114)" fill="#b9d7ff"/>
  </g>
</svg>
