<svg xmlns="http://www.w3.org/2000/svg" width="20.226" height="23.116" viewBox="0 0 20.226 23.116">
  <path id="Icon_awesome-calendar-alt" data-name="Icon awesome-calendar-alt" d="M0,20.949a2.168,2.168,0,0,0,2.167,2.167H18.059a2.168,2.168,0,0,0,2.167-2.167V8.668H0ZM14.447,12.1a.543.543,0,0,1,.542-.542h1.806a.543.543,0,0,1,.542.542v1.806a.543.543,0,0,1-.542.542H14.989a.543.543,0,0,1-.542-.542Zm0,5.779a.543.543,0,0,1,.542-.542h1.806a.543.543,0,0,1,.542.542v1.806a.543.543,0,0,1-.542.542H14.989a.543.543,0,0,1-.542-.542ZM8.668,12.1a.543.543,0,0,1,.542-.542h1.806a.543.543,0,0,1,.542.542v1.806a.543.543,0,0,1-.542.542H9.21a.543.543,0,0,1-.542-.542Zm0,5.779a.543.543,0,0,1,.542-.542h1.806a.543.543,0,0,1,.542.542v1.806a.543.543,0,0,1-.542.542H9.21a.543.543,0,0,1-.542-.542ZM2.889,12.1a.543.543,0,0,1,.542-.542H5.237a.543.543,0,0,1,.542.542v1.806a.543.543,0,0,1-.542.542H3.431a.543.543,0,0,1-.542-.542Zm0,5.779a.543.543,0,0,1,.542-.542H5.237a.543.543,0,0,1,.542.542v1.806a.543.543,0,0,1-.542.542H3.431a.543.543,0,0,1-.542-.542ZM18.059,2.889H15.892V.722A.724.724,0,0,0,15.17,0H13.725A.724.724,0,0,0,13,.722V2.889H7.224V.722A.724.724,0,0,0,6.5,0H5.057a.724.724,0,0,0-.722.722V2.889H2.167A2.168,2.168,0,0,0,0,5.057V7.224H20.226V5.057A2.168,2.168,0,0,0,18.059,2.889Z" fill="#00313d"/>
</svg>
