<svg xmlns="http://www.w3.org/2000/svg" width="16.271" height="21.695" viewBox="0 0 16.271 21.695">
  <path id="Icon_awesome-file-pdf" data-name="Icon awesome-file-pdf" d="M7.708,10.852a4.088,4.088,0,0,1-.085-1.987C7.979,8.864,7.945,10.428,7.708,10.852Zm-.072,2a19.552,19.552,0,0,1-1.2,2.657A15.6,15.6,0,0,1,9.1,14.58,5.489,5.489,0,0,1,7.636,12.852ZM3.648,18.14c0,.034.559-.229,1.479-1.7A5.856,5.856,0,0,0,3.648,18.14Zm6.86-11.36h5.763v13.9a1.014,1.014,0,0,1-1.017,1.017H1.017A1.014,1.014,0,0,1,0,20.678V1.017A1.014,1.014,0,0,1,1.017,0H9.491V5.763A1.02,1.02,0,0,0,10.508,6.78Zm-.339,7.28A4.253,4.253,0,0,1,8.36,11.78a6.09,6.09,0,0,0,.263-2.72A1.061,1.061,0,0,0,6.6,8.771a7.045,7.045,0,0,0,.343,3.263,39.789,39.789,0,0,1-1.729,3.636s0,0-.008,0c-1.148.589-3.119,1.886-2.309,2.881a1.317,1.317,0,0,0,.911.424c.758,0,1.513-.763,2.589-2.619a24.153,24.153,0,0,1,3.347-.983,6.422,6.422,0,0,0,2.712.826,1.1,1.1,0,0,0,.835-1.839c-.589-.576-2.3-.411-3.119-.305Zm5.805-9.61L11.822.3A1.016,1.016,0,0,0,11.1,0h-.254V5.424h5.424V5.165A1.014,1.014,0,0,0,15.974,4.449Zm-3.14,10.818c.174-.114-.106-.5-1.814-.381C12.593,15.555,12.835,15.267,12.835,15.267Z" fill="#264753"/>
</svg>
