<svg xmlns="http://www.w3.org/2000/svg" width="13.963" height="12.412" viewBox="0 0 13.963 12.412">
  <path id="Icon_metro-shop" data-name="Icon metro-shop" d="M8.087,8.7,8.7,4.627H5.509L4.176,8.118a1.224,1.224,0,0,0-.063.388,1.815,1.815,0,0,0,1.994,1.551A1.892,1.892,0,0,0,8.087,8.7Zm3.007,1.358a1.816,1.816,0,0,0,1.994-1.551c0-.032,0-.064,0-.094L12.69,4.627H9.5L9.1,8.409c0,.032,0,.064,0,.1a1.816,1.816,0,0,0,1.994,1.551Zm3.879.811v3.067H7.216V10.873a3.264,3.264,0,0,1-1.109.192,3.2,3.2,0,0,1-.443-.038v4.925a1.088,1.088,0,0,0,1.084,1.086h8.69a1.09,1.09,0,0,0,1.086-1.086V11.029a3.333,3.333,0,0,1-.443.038A3.224,3.224,0,0,1,14.973,10.869Zm3.041-2.751L16.679,4.627H13.489L14.1,8.694a1.888,1.888,0,0,0,1.98,1.364,1.816,1.816,0,0,0,1.994-1.551A1.246,1.246,0,0,0,18.014,8.118Z" transform="translate(-4.113 -4.627)" fill="#00313d"/>
</svg>
