<svg xmlns="http://www.w3.org/2000/svg" width="48.141" height="48.153" viewBox="0 0 48.141 48.153">
  <g id="Icon_ionic-ios-timer" data-name="Icon ionic-ios-timer" transform="translate(-3.938 -3.938)">
    <path id="Path_3762" data-name="Path 3762" d="M28.014,52.091A24.077,24.077,0,0,1,11.3,10.679,1.933,1.933,0,1,1,13.99,13.46,20.206,20.206,0,1,0,29.94,7.9v7.536a1.938,1.938,0,0,1-3.876,0V5.876A1.937,1.937,0,0,1,28,3.938a24.077,24.077,0,0,1,.012,48.153Z" transform="translate(0 0)"/>
    <path id="Path_3763" data-name="Path 3763" d="M13.163,11.478l11.978,8.607a3.625,3.625,0,1,1-4.213,5.9,3.5,3.5,0,0,1-.843-.843L11.477,13.163a1.208,1.208,0,0,1,1.685-1.685Z" transform="translate(5.209 5.209)"/>
  </g>
</svg>
