<svg xmlns="http://www.w3.org/2000/svg" width="23" height="14.998" viewBox="0 0 23 14.998">
  <path id="Subtraction_2" data-name="Subtraction 2" d="M-18135.5-3426.5h-23v-2.47a3.66,3.66,0,0,0,2.322-1.5,5.861,5.861,0,0,0,1.107-3.527c0-2.545-1.475-4.708-3.43-5.031v-2.466h23v2.466a3.65,3.65,0,0,0-2.324,1.5,5.913,5.913,0,0,0-1.1,3.532,5.914,5.914,0,0,0,1.1,3.532,3.676,3.676,0,0,0,2.324,1.5v2.469Zm-13.076-6.062h0c.023.909.693,1.507,1.791,1.6v.656h.516v-.647a1.751,1.751,0,0,0,1.8-1.659c0-1.149-.922-1.386-1.738-1.6l-.066-.017v-1.513a.727.727,0,0,1,.533.647h1.207a1.683,1.683,0,0,0-1.74-1.568v-.647h-.516v.647a1.709,1.709,0,0,0-1.791,1.641c0,1.177.941,1.411,1.773,1.618l.018,0v1.531a.708.708,0,0,1-.592-.7h-1.2Zm2.307.711h0v-1.4c.32.11.646.279.646.688a.716.716,0,0,1-.645.711Zm-.516-2.529h0c-.43-.149-.621-.363-.621-.692a.654.654,0,0,1,.623-.688v1.379Z" transform="translate(18158.5 3441.498)" fill="#264753"/>
</svg>
